<?xml version="1.0" encoding="UTF-8" standalone="no"?>
<!-- Created with Inkscape (http://www.inkscape.org/) -->

<svg
   xmlns:dc="http://purl.org/dc/elements/1.1/"
   xmlns:cc="http://creativecommons.org/ns#"
   xmlns:rdf="http://www.w3.org/1999/02/22-rdf-syntax-ns#"
   xmlns:svg="http://www.w3.org/2000/svg"
   xmlns="http://www.w3.org/2000/svg"
   xmlns:sodipodi="http://sodipodi.sourceforge.net/DTD/sodipodi-0.dtd"
   xmlns:inkscape="http://www.inkscape.org/namespaces/inkscape"
   width="120"
   height="120"
   id="svg"
   version="1.1"
   inkscape:version="0.48.4 r9939"
   sodipodi:docname="stomachion2.svg">
  <sodipodi:namedview
     pagecolor="#ffffff"
     bordercolor="#666666"
     borderopacity="1"
     objecttolerance="10"
     gridtolerance="10"
     guidetolerance="10"
     inkscape:pageopacity="0"
     inkscape:pageshadow="2"
     inkscape:window-width="1300"
     inkscape:window-height="745"
     id="namedview34"
     showgrid="false"
     inkscape:zoom="2.5063777"
     inkscape:cx="61.491487"
     inkscape:cy="96.662271"
     inkscape:window-x="-8"
     inkscape:window-y="-8"
     inkscape:window-maximized="1"
     inkscape:current-layer="layer1" />
  <defs
     id="defs4" />
  <metadata
     id="metadata7">
    <rdf:RDF>
      <cc:Work
         rdf:about="">
        <dc:format>image/svg+xml</dc:format>
        <dc:type
           rdf:resource="http://purl.org/dc/dcmitype/StillImage" />
        <dc:title />
      </cc:Work>
    </rdf:RDF>
  </metadata>
  <g
     inkscape:label="Ebene 1"
     inkscape:groupmode="layer"
     id="layer1">
    <polygon
       points="40,40 0,0 60,0 "
       style="fill:#000000;fill-opacity:1;fill-rule:nonzero;stroke:none"
       id="polygon6"
       transform="translate(19.94911,39.100253)" />
    <polygon
       points="20,20 0,0 0,120 "
       style="fill:#0f0f0f;fill-opacity:1;fill-rule:nonzero"
       id="polygon8"
       transform="translate(59.448345,75.40763)" />
    <polygon
       points="20,20 40,40 0,120 "
       style="fill:#1e1e1e;fill-opacity:1;fill-rule:nonzero"
       id="polygon10"
       transform="translate(0.79796631,19.949109)" />
    <polygon
       points="60,60 60,0 40,40 "
       style="fill:#5a5a5a;fill-opacity:1;fill-rule:nonzero"
       id="polygon12"
       transform="translate(-38.302281,-19.151144)" />
    <polygon
       points="90,60 60,0 60,60 80,80 "
       style="fill:#696969;fill-opacity:1;fill-rule:nonzero;stroke:none"
       id="polygon14"
       transform="translate(19.550129,39.499235)" />
    <polygon
       points="120,40 90,60 60,0 120,0 "
       style="fill:#787878;fill-opacity:1;fill-rule:nonzero;stroke:none"
       id="polygon16"
       transform="translate(18.353182,37.903306)" />
    <polygon
       points="120,60 90,60 120,40 "
       style="fill:#878787;fill-opacity:1;fill-rule:nonzero;stroke:none"
       id="polygon18"
       transform="translate(-47.47888,-118.09872)" />
    <polygon
       points="90,60 120,120 120,60 "
       style="fill:#969696;fill-opacity:1;fill-rule:nonzero;stroke:none"
       id="polygon20"
       transform="translate(-47.079896,-118.09872)" />
    <polygon
       points="120,120 90,60 80,80 "
       style="fill:#a5a5a5;fill-opacity:1;fill-rule:nonzero"
       id="polygon22"
       transform="translate(-47.478876,-118.89669)" />
    <polygon
       points="120,120 60,120 80,80 "
       style="fill:#b4b4b4;fill-opacity:1;fill-rule:nonzero"
       id="polygon24"
       transform="translate(18.353185,-82.589309)" />
    <polygon
       points="60,120 60,60 80,80 "
       style="fill:#808080;fill-opacity:1;fill-rule:nonzero;stroke:none"
       id="polygon26"
       transform="translate(-8.3786236,-81.392362)" />
    <polygon
       points="60,60 60,120 30,120 30,60 40,40 "
       style="fill:#4b4b4b;fill-opacity:1;fill-rule:nonzero;stroke:none"
       id="polygon28"
       transform="translate(-8.3786236,-80.195416)" />
    <polygon
       points="20,80 30,60 30,120 "
       style="fill:#3c3c3c;fill-opacity:1;fill-rule:nonzero"
       id="polygon30"
       transform="translate(49.473791,-19.949108)" />
    <polygon
       points="20,80 30,120 0,120 "
       style="fill:#2d2d2d;fill-opacity:1;fill-rule:nonzero"
       id="polygon32"
       transform="translate(50.271755,-80.195416)" />
  </g>
</svg>
