<?xml version="1.0" encoding="UTF-8" standalone="no"?>
<!-- Created with Inkscape (http://www.inkscape.org/) -->

<svg
   xmlns:dc="http://purl.org/dc/elements/1.1/"
   xmlns:cc="http://creativecommons.org/ns#"
   xmlns:rdf="http://www.w3.org/1999/02/22-rdf-syntax-ns#"
   xmlns:svg="http://www.w3.org/2000/svg"
   xmlns="http://www.w3.org/2000/svg"
   xmlns:sodipodi="http://sodipodi.sourceforge.net/DTD/sodipodi-0.dtd"
   xmlns:inkscape="http://www.inkscape.org/namespaces/inkscape"
   width="120"
   height="120"
   id="svg"
   version="1.1"
   inkscape:version="0.48.4 r9939"
   sodipodi:docname="stochamion.svg">
  <sodipodi:namedview
     pagecolor="#ffffff"
     bordercolor="#666666"
     borderopacity="1"
     objecttolerance="10"
     gridtolerance="10"
     guidetolerance="10"
     inkscape:pageopacity="0"
     inkscape:pageshadow="2"
     inkscape:window-width="1304"
     inkscape:window-height="745"
     id="namedview34"
     showgrid="false"
     inkscape:zoom="4.4403646"
     inkscape:cx="54.286976"
     inkscape:cy="60"
     inkscape:window-x="-8"
     inkscape:window-y="-8"
     inkscape:window-maximized="1"
     inkscape:current-layer="layer1" />
  <defs
     id="defs4" />
  <metadata
     id="metadata7">
    <rdf:RDF>
      <cc:Work
         rdf:about="">
        <dc:format>image/svg+xml</dc:format>
        <dc:type
           rdf:resource="http://purl.org/dc/dcmitype/StillImage" />
        <dc:title />
      </cc:Work>
    </rdf:RDF>
  </metadata>
  <g
     inkscape:label="Ebene 1"
     inkscape:groupmode="layer"
     id="layer1">
    <polygon
       points="0,0 60,0 40,40"
       style="stroke:none;fill:#000000;fill-opacity:1;fill-rule:nonzero;"
       id="polygon6" />
    <polygon
       points="0,0 0,120 20,20"
       style="fill:#0f0f0f;fill-opacity:1;fill-rule:nonzero;"
       id="polygon8" />
    <polygon
       points="40,40 0,120 20,20"
       style="fill:#1e1e1e;fill-opacity:1;fill-rule:nonzero;"
       id="polygon10" />
    <polygon
       points="60,60 60,0 40,40"
       style="fill:#5a5a5a;fill-opacity:1;fill-rule:nonzero;"
       id="polygon12" />
    <polygon
       points="60,0 60,60 80,80 90,60"
       style="fill:#696969;fill-opacity:1;stroke:none;fill-rule:nonzero;"
       id="polygon14" />
    <polygon
       points="60,0 120,0 120,40 90,60"
       style="fill:#787878;fill-opacity:1;stroke:none;fill-rule:nonzero;"
       id="polygon16" />
    <polygon
       points="120,40 120,60 90,60"
       style="fill:#878787;fill-opacity:1;stroke:none;fill-rule:nonzero;"
       id="polygon18" />
    <polygon
       points="120,60 90,60 120,120"
       style="fill:#969696;fill-opacity:1;stroke:none;fill-rule:nonzero;"
       id="polygon20" />
    <polygon
       points="120,120 90,60 80,80"
       style="fill:#a5a5a5;fill-opacity:1;fill-rule:nonzero;"
       id="polygon22" />
    <polygon
       points="120,120 60,120 80,80"
       style="fill:#b4b4b4;fill-opacity:1;fill-rule:nonzero;"
       id="polygon24" />
    <polygon
       points="60,60 80,80 60,120"
       style="fill:#808080;fill-opacity:1;stroke:none;fill-rule:nonzero;"
       id="polygon26" />
    <polygon
       points="30,60 40,40 60,60 60,120 30,120"
       style="fill:#4b4b4b;fill-opacity:1;stroke:none;fill-rule:nonzero;"
       id="polygon28" />
    <polygon
       points="30,60 30,120 20,80"
       style="fill:#3c3c3c;fill-opacity:1;fill-rule:nonzero;"
       id="polygon30" />
    <polygon
       points="30,120 0,120 20,80"
       style="fill:#2d2d2d;fill-opacity:1;fill-rule:nonzero;"
       id="polygon32" />
  </g>
</svg>
