<?xml version="1.0" encoding="UTF-8" standalone="no"?>
<svg
   xmlns:dc="http://purl.org/dc/elements/1.1/"
   xmlns:cc="http://creativecommons.org/ns#"
   xmlns:rdf="http://www.w3.org/1999/02/22-rdf-syntax-ns#"
   xmlns:svg="http://www.w3.org/2000/svg"
   xmlns="http://www.w3.org/2000/svg"
   xmlns:sodipodi="http://sodipodi.sourceforge.net/DTD/sodipodi-0.dtd"
   xmlns:inkscape="http://www.inkscape.org/namespaces/inkscape"
   version="1.1"
   width="367.32425"
   height="370.1163"
   id="svg2"
   inkscape:version="0.48.4 r9939"
   sodipodi:docname="yay.svg">
  <sodipodi:namedview
     pagecolor="#ffffff"
     bordercolor="#666666"
     borderopacity="1"
     objecttolerance="10"
     gridtolerance="10"
     guidetolerance="10"
     inkscape:pageopacity="0"
     inkscape:pageshadow="2"
     inkscape:window-width="1024"
     inkscape:window-height="549"
     id="namedview70"
     showgrid="false"
     inkscape:zoom="2.5125498"
     inkscape:cx="184.70223"
     inkscape:cy="66.25443"
     inkscape:window-x="0"
     inkscape:window-y="0"
     inkscape:window-maximized="1"
     inkscape:current-layer="svg2" />
  <defs
     id="defs68" />
  <metadata
     id="metadata190">
    <rdf:RDF>
      <cc:Work
         rdf:about="">
        <dc:format>image/svg+xml</dc:format>
        <dc:type
           rdf:resource="http://purl.org/dc/dcmitype/StillImage" />
        <dc:title />
      </cc:Work>
    </rdf:RDF>
  </metadata>
  <g
     transform="translate(-10.242959,50.999999)"
     id="main">
    <title
       id="title125">Layer 1</title>
    <g
       transform="matrix(0.0532928,-0.99857893,0.99857893,0.0532928,-172.68446,300.81186)"
       id="gTail">
      <path
         d="M 137.722,273.16699 C 91.054001,228.966 60.902,279.923 30.278,262.49899 4.445,242.332 23.778,211.832 38.362,199.12399 66.033005,175.013 29.764,184.783 26.901001,185.589 18.288,188.01199 -16.697,232.63901 9.669001,267.27698 46.346001,315.45999 78.983002,260.47501 123.333,291.526 161.035,317.923 137,274.198 137.722,273.16699 z"
         id="path3229"
         style="fill:#794522;stroke:#010101;stroke-width:5" />
      <path
         d="m 9.669001,267.27301 c 36.675001,48.18399 69.316,-6.784 113.666999,24.26599 23.796,16.66199 22.98801,5.39002 19.343,-5.452 -0.737,4.85599 -5.86999,5.73099 -21.186,-4.992 C 77.142998,250.04401 44.501999,305.013 7.827,256.828 4.119,251.957 1.625,246.88699 0.099,241.76601 c 0.539,8.60699 3.343,17.32701 9.570001,25.507 z"
         id="path3334"
         style="fill:#010101;fill-opacity:0.3137" />
    </g>
    <g
       transform="matrix(-0.66474806,0.74706761,-0.74706761,-0.66474806,242.36235,82.25016)"
       id="gArmRight">
      <g
         id="g248">
        <path
           d="M 86.292374,11.071544 C 73.816727,-1.392665 165.90033,94.311104 131.93187,128.37711 105.42353,154.96275 81.978272,167.62015 72.412697,158.56407 l 6.377052,-25.15581 c 0,0 29.759581,-20.12465 20.194,-29.18074 -9.565582,-9.056094 -20.194,-19.118419 -20.194,-28.17451 z"
           id="path250"
           style="fill:#794522;stroke:#010101;stroke-width:5;stroke-linecap:round" />
        <path
           d="m 129.33749,78.237526 c 1.85997,-1.006226 10.62842,8.30143 10.62842,36.224374 0,13.51572 -47.892744,47.71957 -60.847723,48.04759 6.410011,-2.53067 66.693363,-40.2493 50.219303,-84.271964 z"
           id="path3349_2_"
           style="fill:#010101;fill-opacity:0.3137" />
      </g>
      <g
         id="g253">
        <path
           d="m 66.73819,130.99127 c 13.145248,-3.45539 24.83226,5.06438 31.296471,17.00133 7.390989,13.65558 1.686707,30.41635 -12.732864,37.41371 -14.420631,6.99837 -19.904915,-4.33284 -27.296986,-17.98439 -2.459415,-4.54715 -9.774952,-17.47926 -11.523312,-20.70723 -3.683823,-6.80415 -6.930794,-12.20161 0.25721,-15.6902 5.939137,-2.88183 15.650326,-4.42742 19.999481,-0.0332 z"
           id="path255"
           style="fill:#a05b2c;stroke:#010101;stroke-width:5;stroke-linecap:round;stroke-linejoin:round" />
        <path
           d="M 64.229904,175.56537 C 73.016411,174.10632 80.492439,167.274 80.492439,167.274"
           id="path2510_6_"
           style="fill:#a05b2c;stroke:#010101;stroke-width:5;stroke-linecap:round" />
        <path
           d="M 56.968563,166.08665 C 67.716019,157.43407 79.089485,155.8412 79.089485,155.8412"
           id="path2512_6_"
           style="fill:#a05b2c;stroke:#010101;stroke-width:5;stroke-linecap:round" />
        <path
           d="m 52.835159,155.50311 c 6.247368,-10.08546 16.421959,-8.97761 16.421959,-8.97761"
           id="path2514_12_"
           style="fill:#a05b2c;stroke:#010101;stroke-width:5;stroke-linecap:round" />
        <path
           d="m 46.901306,144.54423 c 5.114414,-9.53607 14.361118,-7.97943 14.361118,-7.97943"
           id="path2514_11_"
           style="fill:#a05b2c;stroke:#010101;stroke-width:5;stroke-linecap:round" />
        <path
           d="m 101.06055,157.09598 c -0.78969,5.17706 -2.995074,15.58954 -6.201663,20.75453 -7.910736,12.74092 -15.445244,11.25069 -24.283821,6.74681 11.56266,-0.008 23.617393,-19.5159 30.485484,-27.50134 z"
           id="path3349_1_"
           style="fill:#010101;fill-opacity:0.3137" />
      </g>
    </g>
    <g
       transform="matrix(-0.79808899,-0.60253959,0.60253959,-0.79808899,548.32135,345.56448)"
       id="gArmLeft">
      <g
         id="g264">
        <path
           d="m 347.522,-3.000999 c 11.73801,-12.386 -74.901,82.724998 -42.94101,116.578999 24.94101,26.42099 47,39 56,30 l -6,-25 c 0,0 -28,-19.999997 -19,-28.999997 9,-9 19,-19 19,-28 z"
           id="path266"
           style="fill:#794522;stroke:#010101;stroke-width:5;stroke-linecap:round" />
      </g>
      <g
         id="g268">
        <path
           d="m 365.91998,116.176 c -12.36798,-3.43399 -23.36398,5.033 -29.44598,16.89601 -6.95401,13.57099 -1.58701,30.22798 11.98001,37.18199 13.56799,6.95501 18.728,-4.306 25.68298,-17.873 2.314,-4.519 9.19699,-17.37102 10.84201,-20.579 3.46601,-6.76201 6.521,-12.12602 -0.242,-15.593 -5.58801,-2.864 -14.72501,-4.39998 -18.81702,-0.033 z"
           id="path270"
           style="fill:#a05b2c;stroke:#010101;stroke-width:5;stroke-linecap:round;stroke-linejoin:round" />
        <path
           d="m 368.28,160.474 c -8.267,-1.45 -15.301,-8.24001 -15.301,-8.24001"
           id="path2510_1_"
           style="fill:#a05b2c;stroke:#010101;stroke-width:5;stroke-linecap:round" />
        <path
           d="M 375.112,151.054 C 365,142.455 354.29901,140.87198 354.29901,140.87198"
           id="path2512_1_"
           style="fill:#a05b2c;stroke:#010101;stroke-width:5;stroke-linecap:round" />
        <path
           d="M 379.00101,140.53601 C 373.12299,130.513 363.54999,131.614 363.54999,131.614"
           id="path2514_2_"
           style="fill:#a05b2c;stroke:#010101;stroke-width:5;stroke-linecap:round" />
        <path
           d="m 384.58398,129.645 c -4.81198,-9.477 -13.51196,-7.93 -13.51196,-7.93"
           id="path2514_1_"
           style="fill:#a05b2c;stroke:#010101;stroke-width:5;stroke-linecap:round" />
        <path
           d="m 333.62701,142.119 c 0.74298,5.14501 2.818,15.493 5.83499,20.62599 7.443,12.66202 14.53202,11.181 22.848,6.70502 -10.879,-0.008 -22.22101,-19.39502 -28.68299,-27.33101 z"
           id="path3349_3_"
           style="fill:#010101;fill-opacity:0.3137" />
      </g>
    </g>
    <g
       id="gBody">
      <path
         d="m 302.0072,172.91499 c 0.0326,68.14501 -39.06927,123.424 -87.33739,123.46901 -48.26814,0.046 -87.42237,-55.158 -87.45495,-123.30301 0,-0.055 0,-0.11 0,-0.166 C 127.18227,104.771 166.2848,49.492 214.55293,49.446998 262.82037,49.401 301.97531,104.607 302.0072,172.75101 c 0,0.055 0,0.10899 0,0.16398 z"
         id="path2383"
         style="fill:#794522;stroke:#010101;stroke-width:5;stroke-linecap:round;stroke-linejoin:round" />
      <path
         d="m 291.22946,114.295 c 2.26874,10.975 3.47498,22.589 3.47498,34.59401 0,68.10798 -39.14572,123.375 -87.38835,123.375 -33.16614,0 -62.04698,-26.13201 -76.85219,-64.59401 10.64102,51.2 44.17549,88.62501 83.86876,88.62501 48.24263,0 87.38835,-55.26701 87.38835,-123.37501 0,-21.20999 -3.80576,-41.187 -10.49155,-58.625 z"
         id="path3339"
         style="fill:#010101;fill-opacity:0.3137" />
    </g>
    <g
       id="gHead">
      <g
         id="g279">
        <path
           d="m 152.72627,-23.021999 c -12.98828,0 -23.53427,12.15 -23.53427,27.116999 0,9.684999 4.41594,18.175001 11.05112,22.971003 C 133.2278,41.352998 129.192,57.842004 129.192,75.419 c 0,54.329 38.24623,98.438 85.4007,98.438 47.15275,0 85.43629,-44.109 85.43629,-98.438 0,-17.576996 -4.03665,-34.066002 -11.05111,-48.352997 C 295.59833,22.266 300.02899,13.766999 300.02899,4.095 c 0,-14.966999 -10.54684,-27.116999 -23.53427,-27.116999 -8.39532,0 -15.73523,5.104 -19.90033,12.733 -12.4068,-8.094 -26.73687,-12.733 -42.00255,-12.733 -15.26222,0 -29.56366,4.643 -41.96698,12.733 -4.16336,-7.629 -11.50328,-12.733 -19.89859,-12.733 z"
           id="path2479"
           style="fill:#794522;stroke:#010101;stroke-width:5;stroke-linecap:round;stroke-linejoin:round" />
        <path
           d="m 276.77768,-11.519 c -4.71973,0 -8.84232,2.865 -11.19348,7.147 7.2193,5.601999 13.43353,12.754999 18.29123,21.074999 3.70425,-2.711998 6.17257,-7.502998 6.17257,-12.931 0,-8.438 -5.9469,-15.290999 -13.27032,-15.290999 z"
           id="path2483"
           style="fill:#a05b2c;stroke:#010101;stroke-width:5;stroke-linecap:round;stroke-linejoin:round" />
        <path
           d="m 152.66812,-11.519 c 4.7197,0 8.84229,2.865 11.19345,7.147 -7.21841,5.601999 -13.43351,12.754999 -18.29036,21.074999 -3.70511,-2.711998 -6.17344,-7.502998 -6.17344,-12.931 0,-8.438 5.94691,-15.290999 13.27035,-15.290999 z"
           id="path2523"
           style="fill:#a05b2c;stroke:#010101;stroke-width:5;stroke-linecap:round;stroke-linejoin:round" />
        <path
           d="m 235.65776,-9.215 c 8.96466,-6.026 5.94345,-35.612999 1.68204,-37.744999 -3.82491,15.866999 -7.65065,22.160999 -14.31882,27.137999 1.89032,-9.827999 0.53377,-23.342001 -5.79504,-29.177999 0.6414,8.400002 -1.63513,21.042999 -9.27188,29.662001 -2.07259,-9.097 -2.65841,-19.628 -10.44704,-23.206999 1.91287,10.73 -0.13541,17.418999 -2.42496,24.630999"
           id="path3197"
           style="fill:#794522;stroke:#010101;stroke-width:5;stroke-linecap:round;stroke-linejoin:round" />
      </g>
      <path
         d="m 263.55331,75.971001 c 0.18833,-2.913002 0.29593,-5.877998 0.29511,-8.893997 0,-0.03001 0,-0.06101 0,-0.091 -0.013,-37.935001 -15.49571,-68.667 -34.58196,-68.641001 -5.2413,0.006 -10.20662,2.345001 -14.65553,6.5 -4.4628,-4.168999 -9.44461,-6.507 -14.70241,-6.5 -19.08624,0.025002 -34.54893,30.796999 -34.53592,68.732004 0,0.031 0,0.062 0,0.09199 0,2.983002 0.10936,5.917 0.29509,8.799004 -10.32467,8.918991 -16.59706,20.673996 -16.58578,33.558989 0,0.023 0,0.046 0,0.067 0.0226,27.85701 29.38226,47.42301 65.57329,47.40401 36.19014,-0.018 65.5099,-19.616 65.48475,-47.472 0,-0.021 0,-0.045 0,-0.064 -0.0121,-12.861014 -6.28195,-24.589011 -16.58664,-33.491011 z"
         id="path285"
         style="fill:#a05b2c;stroke:#010101;stroke-width:5;stroke-linecap:round;stroke-linejoin:round" />
      <path
         d="m 166.87582,96.998993 c 0,0 17.90067,27.499997 47.73511,27.499997 29.83443,0 47.73511,-27.499997 47.73511,-27.499997"
         id="path287"
         style="fill:none;stroke:#010101;stroke-width:5;stroke-linecap:round;stroke-linejoin:round" />
      <g
         id="g289">
        <path
           d="m 228.81776,71.833 c -1.99012,3.973999 -5.64228,5.839996 -8.15576,4.167 -2.51347,-1.672997 -2.93788,-6.249001 -0.94688,-10.222 1.99013,-3.973 5.64229,-5.837997 8.15576,-4.166 2.51433,1.673004 2.93788,6.249001 0.94688,10.221001 z"
           id="path2398"
           style="fill:#010101" />
        <path
           d="m 200.4041,71.833 c 1.99013,3.973999 5.64229,5.839996 8.15576,4.167 2.51348,-1.672997 2.93788,-6.249001 0.94689,-10.222 -1.99013,-3.973 -5.64229,-5.837997 -8.15577,-4.166 -2.51433,1.673004 -2.93788,6.249001 -0.94688,10.221001 z"
           id="path2412"
           style="fill:#010101" />
      </g>
    </g>
    <g
       id="gFootLeft">
      <path
         d="m 245.58,290.99701 c 2.80499,-13.63202 16.412,-20.05499 30.869,-20.05499 16.53299,0 29.95099,13.41796 29.95099,29.94998 0,16.53201 -13.418,15.94 -29.95099,15.94 -5.50399,0 -21.311,0.28299 -25.21701,0.28299 -8.23999,0 -14.92799,0.29501 -14.92799,-7.94498 0,-6.80902 3.039,-16.384 9.276,-18.173 z"
         id="path307"
         style="fill:#a05b2c;stroke:#010101;stroke-width:5;stroke-linecap:round;stroke-linejoin:round" />
      <path
         d="m 299.90799,281.74899 c 2.54102,4.4 7.004,13.51901 7.004,18.96402 0,13.43198 -8.86499,15.54798 -21.055,15.874 12.10901,-5.04801 12.051,-25.58802 14.051,-34.83802 z"
         id="path3349_4_"
         style="fill:#010101;fill-opacity:0.3137" />
      <path
         d="m 287.15799,315.18701 c 2.68802,-8.69601 -0.38498,-18.84003 -0.38498,-18.84003"
         id="path2510_4_"
         style="fill:none;stroke:#010101;stroke-width:5;stroke-linecap:round" />
      <path
         d="m 274.68701,316.11801 c -3.29501,-14.01001 0.47098,-25.11902 0.47098,-25.11902"
         id="path2512_4_"
         style="fill:none;stroke:#010101;stroke-width:5;stroke-linecap:round" />
      <path
         d="m 262.61499,315.66901 c -6.76398,-10.62802 -0.96698,-19.32202 -0.96698,-19.32202"
         id="path2514_8_"
         style="fill:none;stroke:#010101;stroke-width:5;stroke-linecap:round" />
      <path
         d="m 249.343,315.66901 c -6.76401,-9.33002 -0.96699,-16.961 -0.96699,-16.961"
         id="path2514_7_"
         style="fill:none;stroke:#010101;stroke-width:5;stroke-linecap:round" />
      <path
         d="m 246.076,292.72199 c -2.49,2.92901 -3.971,6.54101 -3.971,10.44 0,5.63601 3.078,10.65002 7.859,13.901 -7.953,-0.25901 -13.658,-1.67099 -13.658,-9.32398 0,-6.34301 3.90401,-11.90701 9.77,-15.01703 z"
         id="path3327_4_"
         style="fill:#010101;fill-opacity:0.3137" />
    </g>
    <g
       id="gFootRight">
      <path
         d="m 187.13,290.99701 c -2.805,-13.63202 -16.41301,-20.05499 -30.87001,-20.05499 -16.53199,0 -29.94999,13.41796 -29.94999,29.94998 0,16.53201 13.418,15.94 29.94999,15.94 5.50501,0 21.31101,0.28299 25.21801,0.28299 8.24,0 14.927,0.29501 14.927,-7.94498 0,-6.80902 -3.039,-16.384 -9.275,-18.173 z"
         id="path317"
         style="fill:#a05b2c;stroke:#010101;stroke-width:5;stroke-linecap:round;stroke-linejoin:round" />
      <path
         d="m 145.552,315.18701 c -2.688,-8.69601 0.384,-18.84003 0.384,-18.84003"
         id="path2510_5_"
         style="fill:none;stroke:#010101;stroke-width:5;stroke-linecap:round" />
      <path
         d="m 158.022,316.11801 c 3.29399,-14.01001 -0.47101,-25.11902 -0.47101,-25.11902"
         id="path2512_5_"
         style="fill:none;stroke:#010101;stroke-width:5;stroke-linecap:round" />
      <path
         d="m 170.095,315.66901 c 6.763,-10.62802 0.967,-19.32202 0.967,-19.32202"
         id="path2514_10_"
         style="fill:none;stroke:#010101;stroke-width:5;stroke-linecap:round" />
      <path
         d="m 183.366,315.66901 c 6.763,-9.33002 0.96699,-16.961 0.96699,-16.961"
         id="path2514_9_"
         style="fill:none;stroke:#010101;stroke-width:5;stroke-linecap:round" />
      <path
         d="m 186.27499,292.47199 c 2.582,2.95901 4.11701,6.608 4.11701,10.548 0,5.69302 -3.19,10.76001 -8.14701,14.04401 8.24302,-0.262 14.157,-1.68799 14.157,-9.41999 0,-6.40902 -4.04699,-12.031 -10.127,-15.17203 z"
         id="path3327_5_"
         style="fill:#010101;fill-opacity:0.3137" />
    </g>
    <g
       transform="translate(-3.8692866,-51.750683)"
       id="g293">
      <g
         id="gEyeRight">
        <path
           d="m 215.259,87.838 c 0.008,11.501 -9.309,20.831 -20.811,20.838 -11.5,0.008 -20.831,-9.31 -20.838,-20.81 0,-0.01 0,-0.02 0,-0.028 -0.008,-11.501 9.31,-20.831 20.811,-20.839 11.501,-0.007 20.83,9.31 20.838,20.811 0,0.009 0,0.019 0,0.028 z"
           id="path2387"
           style="fill:#ffffff;stroke:#010101;stroke-width:4;stroke-linecap:round;stroke-linejoin:round" />
        <path
           d="m 207.122,90.232 c 0.002,3.569 -2.89,6.464 -6.459,6.467 -3.569,0.001 -6.464,-2.889 -6.467,-6.458 0,-0.002 0,-0.005 0,-0.009 -0.003,-3.569 2.889,-6.465 6.458,-6.467 3.57,-0.003 6.466,2.889 6.468,6.458 0,0.003 0,0.006 0,0.009 z"
           id="path2393"
           style="fill:#010101" />
      </g>
      <g
         id="gEyeLeft">
        <path
           d="m 263.611,87.838 c 0.008,11.501 -9.309,20.831 -20.811,20.838 -11.501,0.008 -20.831,-9.31 -20.838,-20.81 0,-0.01 0,-0.02 0,-0.028 -0.008,-11.501 9.309,-20.831 20.811,-20.839 11.5,-0.007 20.831,9.31 20.838,20.811 0,0.009 0,0.019 0,0.028 z"
           id="path2391"
           style="fill:#ffffff;stroke:#010101;stroke-width:4;stroke-linecap:round;stroke-linejoin:round" />
        <path
           d="m 242.548,90.232 c 0,3.569 -2.891,6.464 -6.46,6.467 -3.569,0.001 -6.464,-2.889 -6.468,-6.458 0,-0.002 0,-0.005 0,-0.009 -0.001,-3.569 2.891,-6.465 6.459,-6.467 3.57,-0.003 6.465,2.889 6.469,6.458 0,0.003 0,0.006 0,0.009 z"
           id="path2395"
           style="fill:#010101" />
      </g>
    </g>
  </g>
  <circle
     cx="181"
     cy="78"
     r="2"
     id="rotEyeLeft"
     sodipodi:cx="181"
     sodipodi:cy="78"
     sodipodi:rx="2"
     sodipodi:ry="2"
     style="fill:#0000ff"
     transform="translate(-0.38256884,8.7990834)" />
  <circle
     cx="230"
     cy="78"
     r="2"
     id="rotEyeRight"
     sodipodi:cx="230"
     sodipodi:cy="78"
     sodipodi:rx="2"
     sodipodi:ry="2"
     style="fill:#0000ff"
     transform="translate(-0.38256884,8.7990834)" />
  <circle
     cx="135"
     cy="177"
     r="2"
     id="rotArmRight"
     sodipodi:cx="279"
     sodipodi:cy="159"
     sodipodi:rx="2"
     sodipodi:ry="2"
     style="fill:#0000ff" />
  <circle
     cx="275"
     cy="177"
     r="2"
     id="rotArmLeft"
     sodipodi:cx="279"
     sodipodi:cy="159"
     sodipodi:rx="2"
     sodipodi:ry="2"
     style="fill:#0000ff" />
  <circle
     cx="265"
     cy="260"
     r="2"
     id="rotFootRight"
     sodipodi:cx="275"
     sodipodi:cy="177"
     sodipodi:rx="2"
     sodipodi:ry="2"
     style="fill:#0000ff" />
  <circle
     cx="150"
     cy="260"
     r="2"
     id="rotFootLeft"
     sodipodi:cx="275"
     sodipodi:cy="177"
     sodipodi:rx="2"
     sodipodi:ry="2"
     style="fill:#0000ff" />
</svg>
